<svg xmlns="http://www.w3.org/2000/svg" viewBox="0 0 16 18" shape-rendering="crispEdges" width="180" height="180">
  <rect width="16" height="18" fill="#0b0d1a"/>
  <g fill="#b196ff">
    <rect x="4" y="1" width="1" height="1"/><rect x="11" y="1" width="1" height="1"/>
    <rect x="5" y="2" width="1" height="1"/><rect x="10" y="2" width="1" height="1"/>
    <rect x="5" y="3" width="6" height="1"/>
    <rect x="4" y="4" width="8" height="1"/>
    <rect x="3" y="5" width="10" height="9"/>
    <rect x="4" y="14" width="2" height="2"/><rect x="10" y="14" width="2" height="2"/>
  </g>
  <g fill="#7c5cf0">
    <rect x="12" y="4" width="1" height="1"/><rect x="12" y="5" width="1" height="9"/>
    <rect x="6" y="10" width="4" height="1"/>
  </g>
  <g fill="#ffffff"><rect x="5" y="7" width="2" height="2"/><rect x="10" y="7" width="2" height="2"/></g>
  <g fill="#1e1b4b"><rect x="6" y="8" width="1" height="1"/><rect x="11" y="8" width="1" height="1"/></g>
  <g fill="#ffa047">
    <rect x="0" y="10" width="3" height="1"/><rect x="2" y="11" width="1" height="1"/><rect x="0" y="12" width="3" height="1"/>
    <rect x="13" y="10" width="3" height="1"/><rect x="13" y="11" width="1" height="1"/><rect x="13" y="12" width="3" height="1"/>
  </g>
</svg>
